<mxfile host="app.diagrams.net" modified="2023-12-12T07:21:34.261Z" agent="Mozilla/5.0 (Windows NT 10.0; Win64; x64) AppleWebKit/537.36 (KHTML, like Gecko) Chrome/120.0.0.0 Safari/537.36 Edg/120.0.0.0" etag="hz-F48_l8P66dni_W260" version="22.1.7" type="github">
  <diagram name="第 1 页" id="-8YBCV_SC0wENq2bXPpb">
    <mxGraphModel dx="875" dy="1295" grid="1" gridSize="10" guides="1" tooltips="1" connect="1" arrows="1" fold="1" page="1" pageScale="1" pageWidth="827" pageHeight="1169" math="0" shadow="0">
      <root>
        <mxCell id="0" />
        <mxCell id="1" parent="0" />
        <mxCell id="kdM77jN5lU5lNKhL9FUl-1" value="&lt;font style=&quot;font-size: 18px;&quot;&gt;Host&lt;/font&gt;" style="rounded=0;whiteSpace=wrap;html=1;sketch=1;curveFitting=1;jiggle=2;fillColor=#dae8fc;strokeColor=#6c8ebf;" parent="1" vertex="1">
          <mxGeometry x="120" y="320" width="160" height="80" as="geometry" />
        </mxCell>
        <mxCell id="kdM77jN5lU5lNKhL9FUl-2" value="&lt;font style=&quot;font-size: 18px;&quot;&gt;TEE&lt;/font&gt;" style="rounded=0;whiteSpace=wrap;html=1;sketch=1;curveFitting=1;jiggle=2;fillColor=#f8cecc;strokeColor=#b85450;" parent="1" vertex="1">
          <mxGeometry x="360" y="320" width="120" height="80" as="geometry" />
        </mxCell>
        <mxCell id="kdM77jN5lU5lNKhL9FUl-3" value="&lt;font style=&quot;font-size: 18px;&quot;&gt;OS&lt;/font&gt;" style="rounded=0;whiteSpace=wrap;html=1;sketch=1;curveFitting=1;jiggle=2;fillColor=#dae8fc;strokeColor=#6c8ebf;" parent="1" vertex="1">
          <mxGeometry x="120" y="440" width="160" height="40" as="geometry" />
        </mxCell>
        <mxCell id="kdM77jN5lU5lNKhL9FUl-4" value="&lt;font style=&quot;font-size: 18px;&quot;&gt;Security Monitor（TeeMM）&lt;/font&gt;" style="rounded=0;whiteSpace=wrap;html=1;sketch=1;curveFitting=1;jiggle=2;fillColor=#f8cecc;strokeColor=#b85450;" parent="1" vertex="1">
          <mxGeometry x="120" y="520" width="360" height="80" as="geometry" />
        </mxCell>
        <mxCell id="kdM77jN5lU5lNKhL9FUl-5" value="&lt;font style=&quot;font-size: 18px;&quot;&gt;SM+TeeMM&lt;/font&gt;" style="rounded=0;whiteSpace=wrap;html=1;sketch=1;curveFitting=1;jiggle=2;fillColor=#f8cecc;strokeColor=#b85450;" parent="1" vertex="1">
          <mxGeometry y="720" width="100" height="80" as="geometry" />
        </mxCell>
        <mxCell id="kdM77jN5lU5lNKhL9FUl-6" value="&lt;font style=&quot;font-size: 18px;&quot;&gt;OS&lt;/font&gt;" style="rounded=0;whiteSpace=wrap;html=1;sketch=1;curveFitting=1;jiggle=2;fillColor=#dae8fc;strokeColor=#6c8ebf;" parent="1" vertex="1">
          <mxGeometry x="100" y="720" width="140" height="80" as="geometry" />
        </mxCell>
        <mxCell id="kdM77jN5lU5lNKhL9FUl-7" value="&lt;font style=&quot;font-size: 18px;&quot;&gt;Host&lt;/font&gt;" style="rounded=0;whiteSpace=wrap;html=1;sketch=1;curveFitting=1;jiggle=2;fillColor=#dae8fc;strokeColor=#6c8ebf;" parent="1" vertex="1">
          <mxGeometry x="240" y="720" width="400" height="80" as="geometry" />
        </mxCell>
        <mxCell id="kdM77jN5lU5lNKhL9FUl-8" value="&lt;font style=&quot;font-size: 18px;&quot;&gt;TEE&lt;/font&gt;" style="rounded=0;whiteSpace=wrap;html=1;sketch=1;curveFitting=1;jiggle=2;fillColor=#f8cecc;strokeColor=#b85450;" parent="1" vertex="1">
          <mxGeometry x="640" y="720" width="160" height="80" as="geometry" />
        </mxCell>
        <mxCell id="9U0bdcDWuitNkJGuC14v-1" value="&lt;font style=&quot;font-size: 18px;&quot;&gt;SM+TeeMM&lt;/font&gt;" style="rounded=0;whiteSpace=wrap;html=1;sketch=1;curveFitting=1;jiggle=2;fillColor=#f8cecc;strokeColor=#b85450;" vertex="1" parent="1">
          <mxGeometry y="900" width="100" height="80" as="geometry" />
        </mxCell>
        <mxCell id="9U0bdcDWuitNkJGuC14v-2" value="&lt;font style=&quot;font-size: 18px;&quot;&gt;OS&lt;/font&gt;" style="rounded=0;whiteSpace=wrap;html=1;sketch=1;curveFitting=1;jiggle=2;fillColor=#dae8fc;strokeColor=#6c8ebf;" vertex="1" parent="1">
          <mxGeometry x="100" y="900" width="140" height="80" as="geometry" />
        </mxCell>
        <mxCell id="9U0bdcDWuitNkJGuC14v-3" value="&lt;font style=&quot;font-size: 18px;&quot;&gt;Host&lt;/font&gt;" style="rounded=0;whiteSpace=wrap;html=1;sketch=1;curveFitting=1;jiggle=2;fillColor=#dae8fc;strokeColor=#6c8ebf;" vertex="1" parent="1">
          <mxGeometry x="240" y="900" width="400" height="80" as="geometry" />
        </mxCell>
        <mxCell id="9U0bdcDWuitNkJGuC14v-4" value="&lt;font style=&quot;font-size: 18px;&quot;&gt;TEE&lt;/font&gt;" style="rounded=0;whiteSpace=wrap;html=1;sketch=1;curveFitting=1;jiggle=2;fillColor=#f8cecc;strokeColor=#b85450;" vertex="1" parent="1">
          <mxGeometry x="640" y="900" width="160" height="80" as="geometry" />
        </mxCell>
        <mxCell id="9U0bdcDWuitNkJGuC14v-5" value="&lt;font color=&quot;#121212&quot; style=&quot;font-size: 18px;&quot;&gt;App&lt;/font&gt;" style="rounded=0;whiteSpace=wrap;html=1;sketch=1;curveFitting=1;jiggle=2;fillColor=#1ba1e2;strokeColor=#006EAF;fontColor=#ffffff;" vertex="1" parent="1">
          <mxGeometry x="240" y="900" width="120" height="80" as="geometry" />
        </mxCell>
      </root>
    </mxGraphModel>
  </diagram>
</mxfile>
